<?xml version="1.0" encoding="UTF-8"?>
<svg xmlns="http://www.w3.org/2000/svg" xmlns:xlink="http://www.w3.org/1999/xlink" width="40pt" height="40pt" viewBox="0 0 40 40" version="1.1">
<g id="surface1">
<path style=" stroke:none;fill-rule:nonzero;fill:rgb(73.72549%,11.372549%,6.27451%);fill-opacity:1;" d="M 39.777344 6.894531 L 39.308594 6.429688 L 39.417969 6.316406 C 40.195312 5.535156 40.195312 4.273438 39.417969 3.492188 L 36.597656 0.671875 C 35.816406 -0.105469 34.554688 -0.105469 33.777344 0.671875 L 33.664062 0.785156 L 33.191406 0.3125 C 32.933594 0.0546875 32.511719 0.0507812 32.253906 0.3125 C 31.992188 0.574219 31.992188 0.996094 32.253906 1.257812 L 32.726562 1.722656 L 31.78125 2.667969 L 31.308594 2.195312 C 31.050781 1.933594 30.628906 1.933594 30.371094 2.195312 C 30.113281 2.453125 30.113281 2.871094 30.371094 3.132812 L 30.84375 3.605469 C 30.171875 4.277344 29.910156 5.253906 30.15625 6.171875 L 28.589844 7.746094 L 28.542969 7.792969 L 28.507812 7.824219 C 28.503906 7.832031 28.496094 7.832031 28.488281 7.835938 C 28.484375 7.839844 28.484375 7.847656 28.480469 7.851562 L 28.460938 7.867188 L 26.640625 9.691406 L 26.617188 9.714844 L 26.609375 9.71875 L 26.605469 9.726562 L 26.578125 9.75 L 24.824219 11.511719 L 24.753906 11.582031 C 24.746094 11.589844 24.734375 11.589844 24.726562 11.601562 C 24.71875 11.609375 24.714844 11.621094 24.707031 11.628906 L 24.636719 11.699219 L 22.851562 13.476562 L 22.839844 13.488281 L 22.835938 13.496094 L 21.105469 15.222656 L 21.09375 15.238281 C 21.085938 15.246094 21.082031 15.246094 21.074219 15.25 L 21.074219 15.253906 L 21.074219 15.25 C 20.542969 14.683594 19.949219 14.183594 19.304688 13.753906 C 17.214844 12.390625 14.136719 12.324219 12.597656 14.558594 C 12.117188 15.355469 11.78125 16.234375 11.613281 17.152344 C 11.347656 18.238281 11.121094 19.167969 10.410156 19.671875 C 9.683594 20.058594 8.859375 20.230469 8.035156 20.164062 C 7.71875 20.179688 7.398438 20.191406 7.085938 20.21875 C 4.320312 20.476562 1.898438 22.171875 0.707031 24.679688 C -0.265625 27.066406 -0.234375 29.746094 0.800781 32.105469 C 2.03125 35.144531 4.390625 37.59375 7.382812 38.933594 C 8.765625 39.566406 10.261719 39.898438 11.78125 39.914062 C 12.316406 39.914062 12.851562 39.867188 13.378906 39.765625 C 15.4375 39.425781 17.261719 38.230469 18.390625 36.472656 C 19.171875 35.128906 19.578125 33.597656 19.570312 32.042969 C 19.574219 31.832031 19.574219 31.605469 19.574219 31.378906 C 19.566406 30.941406 19.585938 30.503906 19.640625 30.070312 C 19.675781 29.640625 19.828125 29.230469 20.074219 28.878906 C 20.613281 28.148438 21.65625 27.933594 22.753906 27.714844 C 23.195312 27.628906 23.640625 27.535156 24.066406 27.410156 C 25.167969 27.089844 26.375 26.277344 26.433594 24.972656 C 26.5 23.609375 25.257812 22.554688 24 22.207031 C 23.785156 22.148438 23.566406 22.101562 23.339844 22.054688 C 22.933594 21.984375 22.535156 21.863281 22.15625 21.695312 L 33.914062 9.9375 C 34.140625 9.996094 34.371094 10.027344 34.601562 10.027344 C 35.308594 10.03125 35.984375 9.75 36.484375 9.25 L 36.488281 9.25 L 36.957031 9.714844 C 37.203125 9.976562 37.617188 9.984375 37.875 9.734375 C 37.882812 9.726562 37.886719 9.722656 37.894531 9.714844 C 38.152344 9.457031 38.152344 9.039062 37.894531 8.78125 C 37.894531 8.78125 37.894531 8.777344 37.894531 8.777344 L 37.425781 8.3125 L 38.367188 7.367188 L 38.835938 7.835938 C 39.085938 8.09375 39.5 8.101562 39.757812 7.851562 C 39.765625 7.847656 39.769531 7.839844 39.777344 7.835938 C 40.035156 7.574219 40.035156 7.15625 39.777344 6.898438 C 39.777344 6.898438 39.777344 6.898438 39.777344 6.894531 Z M 10.824219 33.121094 C 10.699219 33.246094 10.527344 33.316406 10.351562 33.316406 C 10.175781 33.316406 10.007812 33.246094 9.886719 33.121094 L 7.058594 30.300781 C 6.800781 30.042969 6.800781 29.625 7.058594 29.363281 C 7.3125 29.101562 7.730469 29.097656 7.988281 29.351562 C 7.996094 29.355469 8 29.359375 8.003906 29.363281 L 10.824219 32.183594 C 11.082031 32.441406 11.082031 32.863281 10.824219 33.121094 Z M 12.707031 35.003906 C 12.675781 35.035156 12.640625 35.0625 12.605469 35.082031 C 12.566406 35.109375 12.527344 35.128906 12.484375 35.148438 C 12.445312 35.164062 12.40625 35.175781 12.367188 35.183594 C 12.324219 35.195312 12.277344 35.199219 12.234375 35.195312 C 12.058594 35.199219 11.890625 35.128906 11.769531 35.003906 C 11.507812 34.753906 11.5 34.34375 11.75 34.082031 C 11.753906 34.078125 11.761719 34.070312 11.769531 34.066406 C 11.925781 33.910156 12.148438 33.839844 12.367188 33.878906 C 12.40625 33.890625 12.445312 33.902344 12.484375 33.917969 L 12.605469 33.980469 C 12.640625 34.007812 12.675781 34.035156 12.707031 34.066406 C 12.832031 34.1875 12.898438 34.355469 12.898438 34.53125 C 12.898438 34.707031 12.832031 34.878906 12.707031 35.003906 Z M 15.523438 34.0625 C 15.261719 34.320312 14.839844 34.320312 14.582031 34.058594 C 14.457031 33.9375 14.390625 33.769531 14.386719 33.59375 C 14.390625 33.417969 14.460938 33.246094 14.585938 33.121094 C 14.851562 32.875 15.261719 32.875 15.527344 33.121094 C 15.785156 33.382812 15.785156 33.804688 15.523438 34.0625 Z M 15.535156 30.300781 C 15.535156 30.300781 15.53125 30.304688 15.527344 30.300781 C 14.75 31.082031 13.488281 31.082031 12.710938 30.304688 C 12.707031 30.304688 12.707031 30.304688 12.707031 30.300781 L 9.886719 27.480469 C 9.101562 26.703125 9.097656 25.441406 9.875 24.65625 C 10.652344 23.875 11.914062 23.871094 12.699219 24.648438 C 12.699219 24.648438 12.703125 24.652344 12.707031 24.65625 L 15.523438 27.480469 C 16.304688 28.257812 16.3125 29.519531 15.535156 30.300781 Z M 19.664062 22.308594 L 18.726562 23.246094 L 16.84375 21.363281 L 17.78125 20.425781 L 17.785156 20.425781 L 19.664062 22.304688 Z M 20.804688 21.167969 L 20.746094 21.222656 L 20.738281 21.238281 L 20.671875 21.308594 L 20.609375 21.367188 L 18.726562 19.484375 L 19.667969 18.542969 L 21.542969 20.425781 Z M 22.488281 19.488281 L 20.605469 17.605469 L 21.5 16.707031 L 21.53125 16.671875 L 21.542969 16.667969 L 21.546875 16.664062 L 23.425781 18.542969 Z M 25.195312 16.773438 L 24.371094 17.605469 L 22.488281 15.722656 L 23.316406 14.894531 Z M 26.140625 15.835938 L 24.257812 13.953125 L 25.199219 13.011719 L 27.078125 14.890625 Z M 28.023438 13.953125 L 26.140625 12.070312 L 27.082031 11.132812 L 28.960938 13.011719 Z M 30.84375 11.132812 L 29.898438 12.070312 L 28.019531 10.191406 L 28.960938 9.25 Z M 31.789062 10.1875 L 31.78125 10.1875 L 29.902344 8.308594 L 30.84375 7.367188 L 32.726562 9.25 Z M 33.191406 5.011719 C 33.191406 5.011719 33.191406 5.015625 33.191406 5.015625 C 32.941406 5.273438 32.53125 5.28125 32.269531 5.03125 C 32.265625 5.027344 32.257812 5.019531 32.253906 5.015625 L 31.789062 4.546875 L 32.726562 3.609375 L 33.191406 4.078125 C 33.449219 4.335938 33.449219 4.753906 33.191406 5.011719 Z M 34.152344 3.148438 C 34.148438 3.144531 34.140625 3.136719 34.136719 3.132812 L 33.667969 2.667969 L 34.609375 1.726562 L 35.074219 2.195312 C 35.332031 2.453125 35.332031 2.871094 35.074219 3.132812 C 34.824219 3.390625 34.410156 3.398438 34.152344 3.148438 Z M 35.546875 8.304688 L 35.074219 7.835938 C 34.8125 7.574219 34.8125 7.15625 35.074219 6.894531 C 35.332031 6.636719 35.753906 6.636719 36.011719 6.894531 L 36.484375 7.367188 Z M 37.425781 6.425781 L 36.957031 5.957031 C 36.695312 5.695312 36.695312 5.277344 36.957031 5.015625 C 37.214844 4.753906 37.632812 4.753906 37.890625 5.011719 C 37.894531 5.011719 37.894531 5.015625 37.894531 5.015625 L 38.367188 5.488281 Z M 37.425781 6.425781 "/>
<path style=" stroke:none;fill-rule:nonzero;fill:rgb(73.72549%,11.372549%,6.27451%);fill-opacity:1;" d="M 14.589844 28.421875 C 14.589844 28.421875 14.589844 28.417969 14.585938 28.417969 L 11.761719 25.597656 C 11.5 25.339844 11.082031 25.339844 10.824219 25.597656 C 10.5625 25.859375 10.5625 26.277344 10.824219 26.539062 L 13.644531 29.355469 C 13.90625 29.617188 14.328125 29.617188 14.585938 29.355469 C 14.847656 29.097656 14.847656 28.679688 14.589844 28.421875 Z M 14.589844 28.421875 "/>
</g>
</svg>
